<?xml version="1.0" encoding="UTF-8"?>
<svg xmlns="http://www.w3.org/2000/svg" xmlns:i="http://ns.adobe.com/AdobeIllustrator/10.0/" version="1.1" viewBox="0 0 750 330">
  <!-- Generator: Adobe Illustrator 29.6.1, SVG Export Plug-In . SVG Version: 2.1.1 Build 9)  -->
  <defs>
    <style>
      .st0 {
        isolation: isolate;
      }
    </style>
  </defs>
  <g class="st0 cl-svg-title">
    <g class="cl-svg-title-main">
      <path d="M189.45,71.8c1.51.94,2.86,2.04,4.06,3.31,1.2,1.27,1.79,2.41,1.79,3.39,0,.68-.21,1.22-.62,1.64s-1.12.94-2.11,1.56c-.88.57-1.6,1.08-2.15,1.52-.55.44-1.05,1-1.52,1.68-7.07,10.82-14.91,19.06-23.52,24.73-8.61,5.67-18.34,9.67-29.21,12.01l-.86.08c-.47,0-.7-.16-.7-.47,0-.21.36-.47,1.09-.78,9.36-3.9,18-9.15,25.94-15.76,7.93-6.6,14.88-15.26,20.87-25.97.31-.57.47-1.04.47-1.4,0-.47-.23-.7-.7-.7-.16,0-.47.08-.94.23-1.92.73-3.51,1.26-4.76,1.6-1.25.34-2.39.51-3.43.51-1.2,0-2.39-.31-3.59-.94-3.95,4.42-8.32,8.29-13.1,11.62-4.78,3.33-9.15,5.75-13.1,7.25-.47.21-.83.31-1.09.31-.21,0-.31-.05-.31-.16,0-.16.1-.32.31-.51.21-.18.49-.38.86-.58,3.74-2.76,7.31-6.04,10.69-9.87,3.38-3.82,6.1-7.44,8.15-10.84,2.05-3.4,3.08-5.81,3.08-7.21,0-1.66-1.25-2.86-3.74-3.59-.62-.16-.94-.34-.94-.55,0-.26.36-.52,1.09-.78,1.09-.36,2.34-.55,3.74-.55,1.51,0,3.05.39,4.64,1.17,1.59.78,2.93,1.73,4.02,2.85,1.09,1.12,1.64,2.09,1.64,2.92,0,.42-.29,1.07-.86,1.95-1.14,1.66-2.18,3.07-3.12,4.21,2.81-.1,6.08-1.25,9.83-3.43.26-.1.73-.35,1.4-.74.68-.39,1.29-.68,1.83-.86.55-.18,1.05-.27,1.52-.27.73,0,1.85.47,3.35,1.4Z"/>
      <path d="M212.34,124.68c0-.16.12-.31.35-.47s.53-.34.9-.55c7.28-3.69,12.83-7.86,16.65-12.52,3.82-4.65,6.41-9.84,7.76-15.56,1.35-5.72,2.03-12.74,2.03-21.06,0-1.3-.05-3.09-.16-5.38-.05-1.04-.3-2.09-.74-3.16-.44-1.07-1.11-1.91-1.99-2.54-.62-.42-1.2-.7-1.72-.86-.52-.16-.87-.27-1.05-.35-.18-.08-.27-.22-.27-.43,0-.42.7-.84,2.11-1.29,1.4-.44,2.76-.66,4.06-.66.83,0,1.4.05,1.72.16,1.98.52,3.79,1.44,5.46,2.77,1.66,1.33,2.5,2.46,2.5,3.39,0,.36-.21,1.07-.62,2.11-.52,1.14-.78,2.11-.78,2.89,0,1.09-.05,2.63-.16,4.6-.1,1.25-.16,2.16-.16,2.73-.05,7.23-.88,13.66-2.5,19.3-1.61,5.64-4.93,10.87-9.95,15.68-5.02,4.81-12.31,8.57-21.88,11.27l-1.17.23c-.26,0-.39-.11-.39-.31ZM220.76,98.55c-.78-.57-1.44-1.34-1.99-2.3-.55-.96-.82-2.04-.82-3.24l.16-1.72c.42-3.9.62-6.97.62-9.2,0-4.73-.26-7.88-.78-9.44-.68-2.08-2.03-3.25-4.06-3.51-.62-.1-.94-.29-.94-.55s.34-.65,1.01-1.17c.67-.52,1.51-.99,2.5-1.4.99-.42,1.95-.62,2.89-.62.57,0,1.09.08,1.56.23,2.29.68,3.87,1.42,4.76,2.22.88.81,1.33,1.7,1.33,2.69,0,.42-.08.92-.23,1.52-.16.6-.26,1.08-.31,1.44-.21,1.4-.31,3.38-.31,5.93,0,1.4.05,3.56.16,6.47l.31,3.74c.21,1.98.31,3.41.31,4.29,0,1.35-.39,2.6-1.17,3.74-.78,1.14-1.74,1.72-2.89,1.72-.62,0-1.33-.29-2.11-.86Z"/>
      <path d="M276.9,109.63c-1.98,0-4.16-1.33-6.55-3.98-.88-.99-1.56-2.08-2.03-3.28-.47-1.2-.7-2.23-.7-3.12,0-.42.05-.73.16-.94.1-.21.23-.31.39-.31s.45.19.9.58c.44.39.9.74,1.36,1.05.94.52,2.11.95,3.51,1.29,1.4.34,2.83.51,4.29.51,1.61,0,10.69-.94,27.22-2.81l3.67-.39c2.39-.26,4.45-.78,6.16-1.56.73-.36,1.3-.55,1.72-.55,1.14,0,2.74.38,4.8,1.13,2.05.75,3.87,1.72,5.46,2.89,1.59,1.17,2.38,2.38,2.38,3.63,0,.78-.22,1.44-.66,1.99-.44.55-1.36.82-2.77.82-1.3,0-3.93-.36-7.88-1.09-2.24-.47-4.65-.7-7.25-.7-2.18,0-6.45.26-12.79.78l-1.87.16c-4.32.42-7.77.91-10.37,1.48-2.6.57-4.84,1.22-6.71,1.95-.94.31-1.74.47-2.42.47ZM286.89,85.92c-.47.1-.88.16-1.25.16-1.2,0-2.26-.27-3.2-.82-.94-.55-1.95-1.49-3.04-2.85-.62-.73-1.09-1.53-1.4-2.42-.31-.88-.47-1.61-.47-2.18,0-.36.13-.55.39-.55.1,0,.39.16.86.47.68.52,1.61.91,2.81,1.17,1.2.26,2.34.39,3.43.39,2.34,0,6.68-.55,13.03-1.64,1.87-.31,3.54-.65,4.99-1.01.26-.05.99-.29,2.18-.7,1.51-.57,2.78-.86,3.82-.86s2.17.26,3.55.78c1.38.52,2.55,1.21,3.51,2.07.96.86,1.44,1.75,1.44,2.69,0,1.09-.34,1.83-1.01,2.22-.68.39-1.77.58-3.28.58-1.09,0-1.92-.03-2.5-.08l-2.73-.08c-3.17,0-8.69.62-16.54,1.87l-3.43.55c-.31.05-.7.13-1.17.23Z"/>
      <path d="M349.35,99.53c-.62-.86-1.04-1.88-1.25-3.08-.57-3.85-2.13-6.86-4.68-9.05-.52-.42-.78-.73-.78-.94,0-.36.23-.55.7-.55,1.09,0,2.65.48,4.68,1.44,2.03.96,3.82,2.22,5.38,3.78,1.56,1.56,2.34,3.2,2.34,4.91,0,1.2-.34,2.29-1.01,3.28-.68.99-1.66,1.48-2.96,1.48-.99,0-1.79-.43-2.42-1.29ZM344.75,122.73c0-.26.44-.57,1.33-.94,4.57-1.72,9.1-4.49,13.57-8.31,4.47-3.82,8.32-8.05,11.54-12.67,3.22-4.63,5.33-8.89,6.32-12.79.36-1.56.55-2.76.55-3.59,0-1.2-.39-2.16-1.17-2.89-.31-.26-.66-.53-1.05-.82-.39-.29-.58-.51-.58-.66,0-.52.52-.78,1.56-.78,1.51,0,3.01.34,4.52,1.01,1.3.52,2.67,1.55,4.1,3.08,1.43,1.53,2.14,2.92,2.14,4.17,0,.36-.09.69-.27.98-.18.29-.46.58-.82.9-.57.47-.99.91-1.25,1.33-.47.68-1.01,1.61-1.64,2.81-2.5,4.21-5.08,8.03-7.76,11.47-2.68,3.43-6.47,6.88-11.39,10.33-4.91,3.46-10.83,5.99-17.75,7.6-.36.16-.78.23-1.25.23s-.7-.16-.7-.47ZM361.75,92.23c-.62-.78-1.01-1.72-1.17-2.81-.36-2.13-1-4.04-1.91-5.73-.91-1.69-1.99-3-3.24-3.94-.1-.1-.26-.25-.47-.43-.21-.18-.31-.35-.31-.51,0-.31.26-.47.78-.47,1.14,0,2.73.47,4.76,1.4,2.03.94,3.82,2.2,5.38,3.78,1.56,1.59,2.34,3.31,2.34,5.19,0,1.4-.35,2.54-1.05,3.39-.7.86-1.63,1.29-2.77,1.29-.94,0-1.72-.39-2.34-1.17Z"/>
      <path d="M452.01,71.8c1.51.94,2.86,2.04,4.06,3.31,1.2,1.27,1.79,2.41,1.79,3.39,0,.68-.21,1.22-.62,1.64-.42.42-1.12.94-2.11,1.56-.88.57-1.6,1.08-2.15,1.52-.55.44-1.05,1-1.52,1.68-7.07,10.82-14.91,19.06-23.52,24.73-8.61,5.67-18.34,9.67-29.21,12.01l-.86.08c-.47,0-.7-.16-.7-.47,0-.21.36-.47,1.09-.78,9.36-3.9,18-9.15,25.94-15.76,7.93-6.6,14.88-15.26,20.86-25.97.31-.57.47-1.04.47-1.4,0-.47-.23-.7-.7-.7-.16,0-.47.08-.94.23-1.92.73-3.51,1.26-4.76,1.6-1.25.34-2.39.51-3.43.51-1.2,0-2.39-.31-3.59-.94-3.95,4.42-8.32,8.29-13.1,11.62-4.79,3.33-9.15,5.75-13.1,7.25-.47.21-.83.31-1.09.31-.21,0-.31-.05-.31-.16,0-.16.1-.32.31-.51.21-.18.49-.38.86-.58,3.74-2.76,7.3-6.04,10.69-9.87,3.38-3.82,6.1-7.44,8.15-10.84,2.05-3.4,3.08-5.81,3.08-7.21,0-1.66-1.25-2.86-3.74-3.59-.62-.16-.94-.34-.94-.55,0-.26.36-.52,1.09-.78,1.09-.36,2.34-.55,3.74-.55,1.51,0,3.05.39,4.64,1.17,1.59.78,2.92,1.73,4.02,2.85,1.09,1.12,1.64,2.09,1.64,2.92,0,.42-.29,1.07-.86,1.95-1.14,1.66-2.18,3.07-3.12,4.21,2.81-.1,6.08-1.25,9.83-3.43.26-.1.73-.35,1.4-.74.67-.39,1.29-.68,1.83-.86.55-.18,1.05-.27,1.52-.27.73,0,1.85.47,3.35,1.4Z"/>
      <path d="M481.89,90.05c-3.33.05-7.05.39-11.15,1.01h-.23c-.21,0-.39-.13-.55-.39l-1.4-2.96c-.05-.05-.08-.16-.08-.31,0-.26.18-.39.55-.39,2.86.26,6.03.44,9.52.55h43.06l5.85-8.5c.21-.36.49-.39.86-.08,1.2,1.04,2.72,2.42,4.56,4.13,1.84,1.72,3.71,3.48,5.58,5.3.26.26.34.5.23.7-.31.62-1.04.94-2.18.94h-54.6Z"/>
      <path d="M612.81,110.88l.23,7.1c1.04.36,1.74.79,2.11,1.29.36.49.55,1.13.55,1.91,0,1.2-.42,2.14-1.25,2.85-.83.7-2.35,1.22-4.56,1.56-2.21.34-5.34.51-9.4.51h-7.96c-2.45,0-4.25-.2-5.42-.58-1.17-.39-1.96-1.04-2.38-1.95-.42-.91-.62-2.28-.62-4.1v-8.42h-4.99c-1.51,5.15-4.76,8.97-9.75,11.47-4.99,2.5-11.83,4.11-20.51,4.84h-.16c-.26,0-.44-.16-.55-.47v-.16c0-.26.18-.44.55-.55,6.24-1.46,11.04-3.35,14.39-5.69,3.35-2.34,5.58-5.49,6.67-9.44h-1.64v.94c0,.31-.37.69-1.09,1.13-.73.44-1.65.83-2.77,1.17-1.12.34-2.2.51-3.24.51-.57,0-1.01-.16-1.33-.47-.31-.31-.47-.68-.47-1.09.26-2.34.44-5.46.55-9.36v-5.46c0-6.19-.31-11.41-.94-15.68h-.31v2.18c0,.26-.29.58-.86.98-.57.39-1.35.73-2.34,1.01-.99.29-2.08.43-3.28.43-.68,0-1.18-.16-1.52-.47s-.51-.67-.51-1.09c.21-2.39.39-5.62.55-9.67v-5.62c0-5.67-.29-10.71-.86-15.13v-.16c0-.21.05-.35.16-.43.1-.08.26-.06.47.04l9.2,3.67h14.2l1.64-2.42c.21-.26.48-.62.82-1.09.34-.47.61-.82.82-1.05.21-.23.42-.35.62-.35.42,0,1.49.73,3.24,2.18,1.74,1.46,2.79,2.55,3.16,3.28.05.26.05.52,0,.78-.31.57-.91.86-1.79.86h-12.09v4.6h2.81l1.56-2.03c.21-.26.43-.55.66-.86s.48-.6.74-.86.49-.39.7-.39c.47,0,1.57.73,3.31,2.18,1.74,1.46,2.85,2.57,3.32,3.35.16.21.1.44-.16.7-.57.52-1.22.83-1.95.94v6.16c0,.31-.08.55-.23.7-.83.42-1.59.73-2.26.94,1.56,1.14,3.61,2.81,6.16,4.99.26.36.31.65.16.86-.31.52-.91.78-1.79.78h-23.63l9.2,3.82h26.29l1.79-2.18c.16-.21.42-.52.78-.94.36-.42.66-.73.9-.94.23-.21.45-.31.66-.31.47,0,1.74.79,3.82,2.38,2.08,1.59,3.35,2.77,3.82,3.55.16.21.1.44-.16.7-.57.57-1.38.96-2.42,1.17v7.33c.16,6.08.34,10.63.55,13.65,0,.31-.1.57-.31.78-.62.52-1.7,1.04-3.24,1.56-1.53.52-2.87.78-4.02.78h-.86c-.42,0-.62-.21-.62-.62v-2.42h-4.13v6.63c0,.47.16.77.47.9.31.13,1.01.2,2.11.2h7.1c3.38,0,5.38-.03,6.01-.08.52-.05.9-.13,1.13-.23.23-.1.48-.34.74-.7.36-.57.87-1.75,1.52-3.55.65-1.79,1.05-2.93,1.21-3.39.05-.36.23-.55.55-.55.26,0,.39.21.39.62ZM563.44,60.64h-4.91v4.6h4.91v-4.6ZM573.58,67.51h-15.05v5.23h15.05v-5.23ZM563.44,75h-4.91v5.54h4.91v-5.54ZM595.73,88.72h-27.61v5.54h27.61v-5.54ZM595.73,96.45h-27.61v5.15h27.61v-5.15ZM568.12,103.78v5.07h27.61v-5.07h-27.61ZM574.2,76.79c-.42,0-.62-.21-.62-.62v-1.17h-3.43v5.54h4.37l3.2-4.13c-1.14.26-2.08.39-2.81.39h-.7ZM582.62,76.87c-.36-.26-.42-.55-.16-.86,1.04-1.61,2-3.56,2.89-5.85.94-2.24,1.73-4.88,2.38-7.92s1-5.65,1.05-7.84c0-.21.08-.35.23-.43.16-.08.34-.09.55-.04,4.16,1.25,7.02,2.2,8.58,2.85,1.56.65,2.34,1.16,2.34,1.52,0,.21-.21.39-.62.55l-1.4.62c-1.4,2.91-2.73,5.25-3.98,7.02h8.81l1.95-2.89c.16-.26.43-.68.82-1.25.39-.57.71-1,.98-1.29.26-.29.49-.43.7-.43.42,0,1.6.87,3.55,2.61,1.95,1.74,3.16,3.03,3.63,3.86.05.26.03.52-.08.78-.31.57-.94.86-1.87.86h-20.2c-2.7,3.33-5.8,6.06-9.28,8.19-.36.16-.65.13-.86-.08ZM610.35,75.19c1.95,1.74,3.13,3,3.55,3.78l.08.31c0,.42-.21.74-.62.98s-.91.35-1.48.35h-16.38c-2.24.05-4.5.36-6.79.94-.42.1-.68,0-.78-.31l-1.4-2.73c-.05-.05-.08-.16-.08-.31,0-.26.18-.39.55-.39,2.86.26,6.03.44,9.52.55h5.85l1.95-2.89c.21-.31.51-.74.9-1.29.39-.55.7-.95.94-1.21.23-.26.46-.39.66-.39.42,0,1.6.87,3.55,2.61Z"/>
    </g>
    <g class="cl-svg-title-text">
      <path d="M174.89,209.73c-1.79,6.2-2.65,10.02-2.65,11.86q0,.27.12,1.6c.04.27.04.51.04.74,0,1.52-.66,2.38-1.83,2.38-.98,0-1.87-.78-2.38-2.07-.78-1.99-1.29-5.54-1.29-9.17,0-1.91.16-3.9.55-6.16q.31-2.11,1.52-7.29c.35-1.48.51-2.5.51-3.39,0-1.25-.35-2.26-1.33-3.59,1.13.12,2.11.74,3.47,2.18,1.48,1.6,2.26,3.12,2.26,4.41,0,.82-.08,1.01-1.25,2.85-.74,1.21-1.75,3.71-2.26,5.69-.39,1.56-.62,3.28-.62,4.72,0,1.33.12,2.26.55,4.02.04-.08,1.4-3.04,4.13-8.93l.47.16ZM178.32,197.68c1.37.7,2.38.94,4.17.94s3.82-.27,5.97-.82c1.91-.47,2.14-.58,4.06-1.52.31-.16.74-.27.98-.27.51,0,1.4.35,1.95.7.47.35.78.82.78,1.25,0,.55-.43.94-1.37,1.33-1.29.55-3.24,1.01-5.03,1.17,1.09.9,1.37,1.33,1.37,1.95q0,.27-.2,1.29c-.04.31-.16,1.72-.2,3.12,1.21-.47,1.99-.9,2.85-1.6.55-.43.86-.58,1.17-.58,1.01,0,2.22.97,2.22,1.83,0,1.37-2.22,2.61-6.28,3.55.08,2.65.23,4.88.51,6.94,4.84,1.29,7.06,3.12,7.06,5.77,0,1.17-.58,2.07-1.4,2.07-.47,0-.74-.19-1.6-1.09-1.37-1.44-2.38-2.22-3.86-3-.04,1.83-.39,2.85-1.4,3.78-1.13.97-3.12,1.56-5.42,1.56-4.13,0-6.79-1.75-6.79-4.52,0-3.04,3.28-5.23,7.92-5.23.58,0,1.13.04,1.95.08v-5.97c-1.09.08-1.48.08-2.07.08-4.33,0-6.59-1.72-6.79-5.23l.39-.08c.35,1.25.82,1.79,1.91,2.26.78.31,2.07.51,3.39.51,1.17,0,2.15-.08,3.2-.27q0-6.16-.58-6.9c-1.05.08-1.4.12-1.91.12-3,0-5.26-.9-7.21-2.81l.27-.39ZM184.13,218.86c-3.04,0-5.03,1.01-5.03,2.61,0,1.29,1.4,2.07,3.67,2.07s3.9-.66,4.45-1.87c.27-.62.31-1.09.31-2.3-.94-.31-2.22-.51-3.39-.51Z"/>
      <path d="M213.97,193.58c1.25,0,2.65.27,3.98.78,1.52.55,2.22,1.25,2.22,2.15q0,.43-.43,1.33c-.7,1.4-1.17,4.76-1.17,8.15,0,1.25.43,1.83,1.29,1.83.58,0,1.37-.27,3.55-1.29,1.68-.82,2.61-1.09,3.39-1.09,1.4,0,2.57,1.13,2.57,2.46,0,.78-.31,1.29-1.05,1.64q-.43.23-3.9,1.05c-4.25,1.05-7.57,2.42-9.83,4.13-1.91,1.4-2.77,2.81-2.77,4.45,0,2.42,2.03,3.74,5.73,3.74,2.81,0,5.77-.43,9.24-1.36.58-.2.94-.23,1.33-.23,1.01,0,1.95.43,2.73,1.29.55.58.74,1.05.74,1.75,0,.9-.66,1.44-2.07,1.79-1.33.31-4.88.58-7.76.58-3.55,0-5.93-.35-7.84-1.13-2.69-1.09-4.33-3.47-4.33-6.24,0-3.74,3.12-7.25,9.17-10.41-.12.04-.2.04-.27.04-.74,0-1.64-.35-2.11-.82-.94-.9-1.13-2.03-1.29-6.98-.16-3.74-.23-4.52-.51-5.19-.35-.9-1.21-1.36-3-1.68.74-.62,1.09-.74,2.38-.74Z"/>
      <path d="M276.31,212.03c-.58,3.86-1.75,6.98-3.63,9.59-2.18,3.08-5.34,4.92-8.5,4.92-1.95,0-3.55-.7-4.41-1.87-.66-.98-1.01-2.11-1.17-4.13q-.08-.51-.16-2.61c-.2-3.51-.98-4.8-2.96-4.8-1.79,0-3.59,1.25-5.23,3.59-1.52,2.22-2.22,3.78-3.51,7.8-.43,1.25-.94,1.79-1.79,1.79-.7,0-1.29-.51-1.68-1.44-.35-.82-.62-2.07-.62-2.77,0-.94.16-1.29,1.17-2.61,1.64-2.11,4.88-8,7.8-14.12,1.87-3.98,2.77-6.51,2.77-7.8s-.9-2.3-2.92-3.12c.62-.31.94-.39,1.52-.39,1.37,0,3.32.74,5.15,1.91,1.33.9,1.95,1.68,1.95,2.57,0,.58-.16.9-.94,1.72-.78.86-1.13,1.4-2.92,4.21q-2.73,4.37-4.37,7.06-1.21,2.03-1.87,3.12h.04c2.42-2.15,4.41-3.12,6.36-3.12,2.11,0,3.82,1.05,4.72,2.92.47.97.58,1.44.98,4.06.31,1.87.58,2.73,1.13,3.2.43.35.97.51,1.64.51,1.87,0,4.17-1.13,6.24-3.04,2.18-2.07,3.59-4.17,4.8-7.25l.43.12Z"/>
      <path d="M290.61,193.9c1.25,0,2.61.27,3.94.78,1.52.55,2.22,1.25,2.22,2.14q0,.43-.43,1.33c-.7,1.4-1.17,4.76-1.17,8.19,0,1.21.43,1.79,1.25,1.79.62,0,1.44-.31,3.59-1.29,1.68-.78,2.61-1.09,3.39-1.09,1.4,0,2.57,1.13,2.57,2.46,0,1.21-.55,1.6-2.96,2.18-5.3,1.29-7.45,2.03-10.1,3.51-3,1.68-4.49,3.47-4.49,5.54,0,2.42,2.03,3.74,5.73,3.74,2.81,0,5.89-.47,9.24-1.37.58-.16.9-.2,1.33-.2,1.01,0,1.95.43,2.73,1.29.55.58.74,1.01.74,1.72,0,.9-.66,1.48-2.07,1.79-1.33.31-4.88.58-7.76.58-3.55,0-5.93-.35-7.84-1.13-2.69-1.09-4.33-3.47-4.33-6.24,0-3.74,3.12-7.25,9.17-10.38h-.27c-.74,0-1.64-.35-2.11-.82-.9-.9-1.13-2.07-1.29-6.94-.16-3.59-.23-4.56-.51-5.19-.39-.94-1.33-1.44-3-1.68.74-.62,1.09-.74,2.42-.74ZM305.12,197.33c1.87.58,3.04,1.09,4.17,1.87,1.79,1.21,2.61,2.34,2.61,3.59,0,.9-.47,1.52-1.17,1.52-.55,0-.82-.23-1.37-1.13-1.17-2.03-2.69-3.74-4.6-5.19l.35-.66ZM309.1,194.29c1.99.43,3.43.98,4.56,1.72,1.56,1.01,2.26,1.91,2.26,3,0,.94-.47,1.56-1.17,1.56-.43,0-.7-.23-1.29-1.05-1.33-1.91-2.65-3.24-4.68-4.6l.31-.62Z"/>
      <path d="M335.33,225.33c4.17-1.29,7.1-3,9.44-5.54,2.61-2.81,3.9-6.24,3.9-10.26,0-6.67-4.06-10.65-10.76-10.65-.51,0-.82,0-1.56.08,1.36,1.6,1.79,2.65,1.79,4.17,0,3.12-1.99,8.58-4.8,13.3-2.54,4.21-4.8,6.36-6.75,6.36-.86,0-1.68-.47-2.11-1.13-.31-.58-.55-1.13-.9-2.57-.23-.94-.55-1.48-1.68-2.89-.94-1.17-1.52-2.89-1.52-4.49,0-2.46,1.25-5.42,3.28-7.8,3.35-3.98,8.89-6.4,14.7-6.4,8.7,0,14.9,5.5,14.9,13.22,0,5.66-3.12,10.18-8.78,12.79-2.42,1.13-4.91,1.79-9.01,2.34l-.16-.55ZM328.03,203.14c-2.69,2.69-4.17,6.01-4.17,9.28,0,2.69,1.33,5.46,2.65,5.46s3.86-3.24,6.4-8.03c1.95-3.67,3.12-6.9,3.12-8.62,0-.43-.04-.94-.16-1.29-.08-.31-.27-.86-.31-.86-3.16.7-5.27,1.83-7.53,4.06Z"/>
      <path d="M362.78,213.28c3.74-3.12,7.18-7.29,10.02-12.05,1.21-2.03,1.68-3.12,1.68-3.9,0-.55-.16-.9-.55-1.36-.51-.62-.78-.82-1.87-1.33.47-.2.66-.23,1.01-.23,1.4,0,3.55.86,5.19,2.07.82.58,1.25,1.25,1.25,1.79s-.08.7-1.05,1.95c-.04.04-.51.66-1.09,1.44.35.04.62.08.78.08.62,0,2.81-.31,4.06-.55,1.4-.27,1.91-.43,2.69-.86.7-.35.86-.43,1.17-.43.62,0,1.6.58,2.69,1.64,1.01.97,1.52,1.75,1.52,2.38,0,.47-.19.82-.74,1.25-.82.58-.86.62-1.99,2.54-2.73,4.56-4.41,6.83-6.86,9.4-4.76,4.99-10.65,8.62-16.93,10.41l-.2-.43c2.46-1.37,3.74-2.18,5.66-3.74,4.88-3.9,8.66-8.07,11.74-12.87,1.4-2.18,3.24-5.66,3.59-6.75.08-.27.16-.43.16-.51.04-.08.08-.16.08-.2,0-.08-.08-.16-.12-.19h-.12s-.08,0-.16-.04c-.04,0-.08.04-.16.08-.08.04-.23.04-.43.08-.35,0-2.03.39-2.96.66q-.82.27-1.48.47c-.23.04-.39.08-.51.08-.7,0-1.56-.47-2.42-1.33-3.9,4.95-8.7,8.85-13.38,10.84l-.27-.39Z"/>
      <path d="M402.69,196.78c1.48,0,3.98.86,5.19,1.75.62.47.94,1.05.94,1.6v.08c-.04.35-.04.39-.35,1.37-.2.66-.31,2.42-.31,4.84,0,.62.04,1.79.08,3.47.04.94.04,1.87.04,2.3,0,1.21-.04,1.56-.12,2.11-.16.9-.7,1.4-1.44,1.4-.7,0-1.48-.62-2.15-1.72-.55-.94-.97-2.15-.97-2.77q0-.31.23-.97c.43-1.09.66-3.47.66-6.32s-.19-4.1-.74-4.91c-.51-.86-.98-1.21-2.5-1.87.55-.31.74-.35,1.44-.35ZM406.98,227.67c4.1-2.61,6.71-5.34,8.46-8.7,1.83-3.67,2.3-6.86,2.3-15.8,0-4.41-.12-5.73-.66-6.51-.47-.78-1.56-1.4-3.08-1.83.62-.47,1.01-.58,1.79-.58,1.25,0,3.12.47,4.64,1.13,1.68.78,2.38,1.44,2.38,2.34,0,.31-.04.39-.27,1.01-.39.98-.55,2.65-.66,7.76-.12,5.58-.35,7.41-1.01,9.63-1.75,5.62-6.51,9.79-13.65,11.93l-.23-.39Z"/>
      <path d="M438.55,217.77c.9,0,1.44-.04,5.93-.58,4.1-.51,6.75-.7,13.81-1.13,1.56-.08,2.07-.16,3.2-.51.66-.2.98-.27,1.29-.27.7,0,1.83.51,2.89,1.33,1.17.86,1.76,1.72,1.76,2.54,0,.86-.7,1.52-1.56,1.52-.31,0-.86-.08-2.11-.35-3.39-.7-6.01-1.01-8.89-1.01-5.27,0-11.12,1.01-14.51,2.54-.66.31-1.01.39-1.52.39-1.25,0-2.81-1.17-4.02-3.08-.7-1.09-1.21-2.5-1.21-3.28q0-.23.23-.94c1.17,1.95,2.65,2.85,4.72,2.85ZM440.11,199.98c1.72,1.64,2.61,2.03,4.72,2.03s4.52-.35,7.33-1.05c1.6-.43,2.34-.7,3.39-1.25.39-.23.62-.31.94-.31.78,0,2.03.58,3,1.4.66.55.9.97.9,1.52,0,1.01-.62,1.37-3.16,1.76-3.47.58-7.84.97-10.41.97-2.18,0-3.71-.58-5.07-1.91-.66-.66-1.17-1.4-1.99-2.92l.35-.23Z"/>
      <path d="M474.51,206.1c4.76,1.91,6.47,3.35,6.47,5.38,0,1.48-.94,2.77-1.99,2.77-.58,0-.94-.35-1.25-1.33-1.01-3.2-1.83-4.76-3.47-6.55l.23-.27ZM478.68,226.77c4.02-3.04,7.33-6.79,10.38-11.74,1.99-3.28,3.59-6.98,3.59-8.35,0-.97-.55-1.64-2.07-2.42.39-.19.55-.23.9-.23,1.25,0,3.04.7,4.56,1.83.94.66,1.37,1.25,1.37,1.83,0,.47-.08.58-.55,1.17-.35.39-.78,1.09-1.48,2.3-3.08,5.54-5.73,8.89-9.28,11.78-2.14,1.72-4.48,3.08-7.1,4.21l-.31-.39ZM481.57,204.43c2.14.78,3.47,1.44,4.64,2.38,1.01.9,1.44,1.64,1.44,2.73,0,1.48-1.05,2.89-2.15,2.89-.39,0-.74-.23-.94-.62q-.12-.27-.51-1.72c-.7-2.57-1.37-3.86-2.77-5.34l.27-.31Z"/>
      <path d="M508.02,213.28c3.74-3.12,7.18-7.29,10.02-12.05,1.21-2.03,1.68-3.12,1.68-3.9,0-.55-.16-.9-.55-1.36-.51-.62-.78-.82-1.87-1.33.47-.2.66-.23,1.01-.23,1.4,0,3.55.86,5.19,2.07.82.58,1.25,1.25,1.25,1.79s-.08.7-1.05,1.95c-.04.04-.51.66-1.09,1.44.35.04.62.08.78.08.62,0,2.81-.31,4.06-.55,1.4-.27,1.91-.43,2.69-.86.7-.35.86-.43,1.17-.43.62,0,1.6.58,2.69,1.64,1.01.97,1.52,1.75,1.52,2.38,0,.47-.19.82-.74,1.25-.82.58-.86.62-1.99,2.54-2.73,4.56-4.41,6.83-6.86,9.4-4.76,4.99-10.65,8.62-16.93,10.41l-.2-.43c2.46-1.37,3.74-2.18,5.66-3.74,4.88-3.9,8.66-8.07,11.74-12.87,1.4-2.18,3.24-5.66,3.59-6.75.08-.27.16-.43.16-.51.04-.08.08-.16.08-.2,0-.08-.08-.16-.12-.19h-.12s-.08,0-.16-.04c-.04,0-.08.04-.16.08-.08.04-.23.04-.43.08-.35,0-2.03.39-2.96.66q-.82.27-1.48.47c-.23.04-.39.08-.51.08-.7,0-1.56-.47-2.42-1.33-3.9,4.95-8.7,8.85-13.38,10.84l-.27-.39Z"/>
      <path d="M553.23,219.71c3.04,1.52,4.84,2.22,5.62,2.22.82,0,1.37-.51,2.03-1.87,1.64-3.32,2.85-8.39,2.85-11.86,0-2.26-.62-3.16-2.26-3.16-.97,0-1.87.2-3.43.7q-5.11,12.52-6.36,15.44c-1.79,4.13-2.5,5.11-3.59,5.11s-1.83-1.48-1.83-3.67c0-1.37.2-1.91,1.13-2.81,1.75-1.79,4.29-6.43,7.1-13.03-2.07.86-3.35,1.52-4.25,2.07-.55.35-.82.43-1.17.43-.74,0-1.48-.51-2.18-1.48-.78-1.13-1.33-2.57-1.33-3.59,0-.31.04-.55.23-1.01.82,1.72,1.83,2.42,3.43,2.42,1.01,0,2.92-.39,6.01-1.17.82-2.34,1.37-4.76,1.37-6.24,0-1.6-.94-2.57-3.16-3.32.66-.35.97-.43,1.52-.43.86,0,2.3.23,3.39.58,2.22.7,3.39,1.6,3.39,2.65,0,.35-.12.7-.51,1.33-.82,1.21-1.17,1.91-2.42,4.84,1.33-.27,1.95-.35,2.85-.35,1.87,0,3.35.58,4.21,1.76.94,1.21,1.29,2.69,1.29,5.34,0,4.8-1.79,10.92-3.94,13.57-1.29,1.6-3.08,2.54-4.88,2.54-.58,0-1.09-.23-1.33-.62q-.2-.31-.27-1.48c0-.82-1.29-2.34-3.78-4.49l.27-.43ZM569.93,203.37c3.24.58,5.54,1.75,7.68,3.86,1.95,1.95,3,4.25,3,6.63s-1.01,3.86-2.73,3.86c-.62,0-1.05-.2-1.72-.78-.66-.74-1.75-.9-6.01-.94l-.08-.35c3.04-.82,5.03-1.4,5.73-1.75.2-.12.27-.27.27-.58,0-.82-.47-2.65-1.01-3.86-1.21-2.77-2.85-4.49-5.34-5.66l.19-.43ZM570.63,195.38c1.87.59,3.04,1.09,4.17,1.87,1.79,1.21,2.61,2.34,2.61,3.59,0,.9-.47,1.52-1.21,1.52-.51,0-.78-.23-1.33-1.13-1.17-2.03-2.69-3.74-4.6-5.19l.35-.66ZM574.61,192.34c1.99.43,3.43.98,4.56,1.72,1.56,1.01,2.26,1.91,2.26,3,0,.94-.47,1.56-1.17,1.56-.43,0-.7-.23-1.29-1.05-1.33-1.91-2.69-3.24-4.68-4.6l.31-.62Z"/>
      <path d="M171.46,286.78c.55,1.48.7,2.38.7,3.78,0,1.6-.27,2.89-.74,3.67-.47.78-1.05,1.21-1.68,1.21-.55,0-.9-.31-1.21-1.01-.2-.51-.31-1.05-.31-1.52,0-.7.16-1.01.86-1.6,1.33-1.13,2.03-2.69,2.03-4.48l.35-.04ZM182.18,271.57c.78-.97,1.05-1.25,1.87-2.18,1.17,1.05,1.52,1.37,2.65,2.46.16.16.2.23.2.35s-.16.2-.43.2h-5.27v4.76h.86l1.99-2.26c1.21,1.09,1.56,1.4,2.65,2.54.16.16.2.27.2.35,0,.12-.16.2-.39.2h-5.3v5.3h.94c.82-.9,1.05-1.17,1.83-1.99,1.05.9,1.37,1.17,2.3,2.07.31.31.43.51.43.7,0,.31-.31.55-1.33.97-.43,7.18-1.09,10.88-2.26,12.44-.74.98-1.6,1.44-3.12,1.72-.43.08-1.21.16-1.44.16-.47,0-.55-.12-.62-.62-.08-.94-.39-1.6-.9-2.03-.51-.47-.58-.47-3.55-1.6l.08-.43c4.6.47,4.76.47,5.69.47.7,0,.9-.16,1.13-.7.66-1.68,1.13-5.58,1.29-10.33h-6.9v.78c0,.7-.51.86-2.5.86-1.25,0-1.44-.12-1.44-.7.16-3.74.2-7.45.2-13.92,0-3.35-.04-5.15-.23-7.37,1.87.94,2.42,1.21,4.25,2.22h6.36l2.22-2.46c1.52,1.13,1.99,1.52,3.43,2.77.12.12.2.23.2.31,0,.12-.16.2-.39.2h-5.66v4.8h.98ZM173.25,286.58c1.64,1.79,2.65,3.63,2.65,4.91,0,1.05-1.01,2.18-1.95,2.18-.35,0-.55-.31-.55-.82,0-.16,0-.31.04-.58,0-.39.04-1.6.04-2.03,0-1.37-.12-2.03-.51-3.51l.27-.16ZM177.62,266.77h-2.85v4.8h2.85v-4.8ZM174.77,272.38v4.76h2.85v-4.76h-2.85ZM174.77,277.96v5.3h2.85v-5.3h-2.85ZM175.51,286.15c2.26,1.33,3.55,2.77,3.55,3.94,0,.9-.7,1.91-1.33,1.91-.39,0-.47-.16-.66-1.17-.47-2.15-.82-3.04-1.75-4.52l.19-.16ZM178.01,285.41c2.34.9,3.28,1.64,3.28,2.61,0,.78-.58,1.64-1.13,1.64-.2,0-.31-.16-.43-.58-.39-1.33-.9-2.22-1.91-3.39l.19-.27ZM192.05,278.94c-.27,5.5-.9,9.2-2.22,12.48-.86,2.15-2.18,4.33-3.63,6.01-.66.78-1.13,1.25-2.3,2.18l-.39-.27c1.48-2.22,2.38-4.37,3.12-7.45.82-3.35,1.36-8.42,1.36-12.79,0-11.39,0-13.07-.19-15.33,2.07.94,2.69,1.25,4.6,2.38h6.63l2.11-2.22c1.44,1.01,1.91,1.33,3.2,2.34.35.27.47.47.47.66,0,.31-.35.58-1.4,1.13l-.04,5.54c0,2.18.04,2.81.16,6.4,0,.39-.04.55-.12.66-.27.35-1.13.51-2.65.51-1.25,0-1.4-.08-1.44-.74v-1.48h-3.59c.47,3.51.97,5.3,2.11,7.41,1.21,2.18,2.92,4.13,5.03,5.58,1.05.74,1.75,1.09,3.35,1.72v.43c-.94.47-1.37.86-1.87,1.72-.39.66-.78,1.52-.97,2.22-.12.43-.23.58-.47.58-.27,0-.82-.39-1.68-1.25-3.9-3.82-6.01-9.91-6.36-18.41h-2.81ZM199.3,278.12v-11.15h-7.1c0,6.67,0,6.86-.16,11.15h7.25Z"/>
      <path d="M220.71,290.29c3.04,1.52,4.84,2.22,5.62,2.22.82,0,1.37-.51,2.03-1.87,1.64-3.31,2.85-8.38,2.85-11.86,0-2.26-.62-3.16-2.26-3.16-.98,0-1.87.2-3.43.7-3.71,9.05-5.85,14.2-6.36,15.45-1.79,4.13-2.5,5.11-3.59,5.11s-1.83-1.48-1.83-3.67c0-1.37.2-1.91,1.13-2.81,1.83-1.91,4.02-5.89,7.1-13.03-2.18.94-3.24,1.44-4.25,2.07-.59.35-.82.43-1.17.43-.7,0-1.48-.55-2.18-1.48-.78-1.13-1.33-2.57-1.33-3.59,0-.31.04-.55.23-1.01.82,1.72,1.83,2.42,3.43,2.42,1.01,0,2.92-.39,6.01-1.17.82-2.34,1.36-4.76,1.36-6.28s-.94-2.54-3.16-3.28c.66-.39.98-.47,1.52-.47.86,0,2.3.23,3.39.59,2.22.7,3.39,1.6,3.39,2.65,0,.39-.12.74-.51,1.33-.82,1.25-1.25,2.11-2.42,4.88,1.33-.27,1.95-.35,2.85-.35,1.87,0,3.35.58,4.21,1.75.94,1.21,1.29,2.69,1.29,5.34,0,4.8-1.79,10.92-3.94,13.57-1.29,1.6-3.08,2.54-4.88,2.54-.58,0-1.09-.23-1.33-.62q-.2-.31-.27-1.48c-.08-.9-1.17-2.22-3.78-4.49l.27-.43ZM237.41,273.94c3.24.58,5.54,1.75,7.68,3.86,1.95,1.95,3,4.29,3,6.63s-1.01,3.86-2.73,3.86c-.62,0-1.05-.2-1.72-.78-.86-.78-1.6-.9-6.01-.94l-.08-.39c3.2-.82,5.03-1.36,5.73-1.72.19-.12.27-.27.27-.62,0-.78-.47-2.61-1.01-3.82-1.21-2.77-2.85-4.48-5.34-5.66l.2-.43Z"/>
      <path d="M264.19,264c1.13,1.56,2.22,2.38,4.13,3.04,1.21.43,2.38.7,3.63.78,1.44.12,1.99.39,2.77,1.25.7.74,1.09,1.64,1.09,2.42,0,.94-.66,1.52-1.68,1.52-.31,0-.47-.04-2.18-.35-.31-.04-.86-.08-1.64-.08-2.42,0-5.19.39-7.33,1.01-1.05.31-1.68.86-1.68,1.44,0,.43.16.86.78,2.03.16.31.27.94.27,1.56,0,.27-.04.82-.12,1.68-.2,2.69-.35,5.38-.35,6.08v.35c4.91-3.28,8.81-4.76,12.36-4.76,5.03,0,8.42,2.77,8.42,6.9,0,2.57-1.25,4.76-3.55,6.4-3.39,2.34-8.19,3.47-14.9,3.51l-.12-.47c4.64-.86,7.53-1.99,10.14-3.9,2.57-1.87,3.74-3.9,3.74-6.4,0-2.73-1.68-4.41-4.41-4.41-2.3,0-4.64,1.05-6.9,3.12-1.33,1.21-2.54,2.73-3.12,3.86-.39.74-.47.9-.7,1.09-.31.31-.7.47-1.09.47-.94,0-1.95-.7-2.73-1.87-.55-.86-.9-1.75-.9-2.34q0-.27.31-1.44c.08-.39.19-1.13.43-2.61.2-1.48.35-2.57.47-3.28.39-2.46.55-3.63.55-4.09,0-.08,0-.23-.04-.43v-.39c0-1.4.47-2.11,1.83-2.85.82-.43,1.75-.78,4.37-1.64q1.95-.66,2.73-.94c-2.73-1.48-4.09-3.12-4.99-6.08l.39-.2Z"/>
      <path d="M304.94,280.16q-2.97.84-5.71,1.51c-.22,1.29-.5,1.79-.95,1.79-.62,0-.62-.17-2.18-6.89,1.96.11,2.52.11,4.14.11.22,0,.67,0,1.34-.06,2.3-2.97,3.42-4.48,4.93-6.89,2.52-3.98,4.26-7.28,5.21-9.86,1.62.62,2.91,1.12,3.75,1.46,2.69,1.01,3.53,1.46,3.53,1.9,0,.62-.62.84-2.52.95-4.54,5.43-7.34,8.18-12.6,12.32,3.92-.17,7.34-.39,9.18-.62-.62-1.9-1.01-2.63-2.35-4.7l.45-.45c2.63,1.68,3.86,2.58,5.77,4.37,1.9-3.81,2.63-5.6,3.7-9.02,1.46-4.76,2.3-8.96,2.52-12.88,1.9.34,3.42.67,4.31.84,3.64.67,4.76,1.06,4.76,1.68s-.78.95-2.41,1.12c-1.46,3.58-2.18,5.04-3.53,7.56h12.82c1.34-1.51,1.79-1.96,3.19-3.47,2.24,1.57,2.86,2.02,4.87,3.58.5.45.67.73.67,1.01,0,.45-.5.9-1.9,1.57-.67,17.7-.9,20.5-1.9,26.32-.95,5.49-1.79,7.62-3.58,9.13-1.29,1.12-2.91,1.79-5.38,2.13-.67.11-1.23.17-1.57.17-.62,0-.78-.22-.84-1.01-.06-1.51-.73-2.63-1.96-3.53-1.18-.73-2.13-1.06-7.45-2.63l.06-.73c7.28.62,9.07.73,11.42.73,1.74,0,2.18-.67,2.97-4.31,1.18-5.43,2.07-16.8,2.07-26.04,0-.39,0-.95-.06-1.74h-14.11c-2.97,4.98-4.59,7.06-8.01,10.19,1.18,1.29,1.51,1.96,1.51,3.08,0,2.02-1.79,4.03-3.53,4.03-.73,0-1.12-.62-1.4-2.24-.17-1.06-.34-1.85-.62-3.02q-2.46.84-3.36,1.06v11.82c0,2.63.06,8.29.11,12.99,0,.5-.06.73-.17.9-.34.5-1.46.73-3.58.73-1.57,0-1.96-.22-1.96-1.12.22-8.4.34-12.94.34-13.5v-3.02c-.45.11-.56.11-1.06.22-2.58,7.28-4.48,10.92-7.84,15.18l-.56-.34c1.85-5.26,3.19-12.54,3.19-17.08v-1.23c3.14.78,4.37,1.06,6.27,1.68v-5.77ZM296.71,261.23c2.24.78,3.02,1.12,4.7,1.96,1.79-4.14,2.63-6.94,3.08-10.02,7.22,1.9,8.62,2.41,8.62,3.14,0,.56-.67.78-2.63.95-4.26,3.92-6.66,6.1-7.62,6.72,2.52,1.51,3.08,2.3,3.08,3.98,0,2.13-1.51,4.09-3.14,4.09-.84,0-1.12-.39-1.85-2.63-1.06-3.25-1.96-4.76-4.65-7.73l.39-.45ZM311.33,283.57c2.46,1.79,3.47,2.63,4.76,4.03,1.68,1.79,2.69,3.98,2.69,5.71,0,2.35-1.96,5.15-3.64,5.15-.5,0-.84-.28-1.06-.78q-.17-.45-.34-3.02c-.39-4.54-1.12-7.56-2.74-10.7l.34-.39ZM323.31,272.21c7.11,4.26,10.08,7.34,10.08,10.42,0,2.69-2.13,5.43-4.2,5.43-.9,0-1.34-.67-1.57-2.35-.28-1.85-1.01-4.82-1.62-6.66-.73-2.07-1.46-3.58-3.14-6.38l.45-.45Z"/>
      <path d="M415.6,280.61c4.7-4.76,8.01-8.96,11.26-14.45,2.63-4.54,4.2-8.06,5.49-12.54,4.54,1.79,7.78,3.14,8.29,3.53.11.11.28.34.28.5,0,.56-.73.84-2.74,1.01-3.58,6.33-6.1,9.74-9.86,13.55-3.53,3.53-6.66,5.82-12.26,8.9l-.45-.5ZM440.97,276.46c-.39,3.36-.45,3.75-.84,5.54-2.52,12.1-8.57,18.26-22.62,23.07l-.28-.62c7.67-4.98,11.98-9.69,14.39-15.74,1.34-3.47,1.96-6.38,2.58-12.26h-3.92c-1.29,0-2.63.11-3.92.34l-.39-1.96c1.68.34,2.86.45,4.26.45h21.22c1.12-1.18,1.46-1.51,2.58-2.52,2.18,1.51,2.8,1.96,4.87,3.47.45.39.67.67.67.95,0,.34-.28.62-1.29,1.18-.62,8.68-.95,11.76-1.62,15.9-.95,5.38-2.18,7.56-4.87,8.68-1.51.62-3.98,1.06-6.16,1.06-1.01,0-1.12-.11-1.18-1.29-.11-1.4-.9-2.63-2.18-3.36-1.4-.78-2.46-1.18-6.27-2.3l.06-.73c4.26.5,8.96.95,10.47.95,2.41,0,3.14-.56,3.64-2.8,1.01-4.37,1.57-10.36,1.79-18.03h-10.98ZM446.9,254.06c-.06.34-.06.5-.06.56,0,1.62,2.07,4.87,5.15,7.95,2.74,2.8,6.22,5.15,10.19,7,2.3,1.01,3.75,1.51,7.17,2.35v.56c-1.51.73-2.13,1.23-3.19,2.63-.62.9-1.18,1.9-1.57,2.86-.17.5-.39.73-.62.73-.5,0-3.14-1.74-5.38-3.58-5.6-4.65-9.18-9.86-12.15-17.53-.62-1.51-.95-2.13-1.57-2.8l2.02-.73Z"/>
      <path d="M487.3,290.63c5.66-1.68,11.7-3.81,16.18-5.71l.28.56c-8.01,5.94-14,9.41-24.14,14-.17,2.18-.34,2.8-.9,2.8-.22,0-.5-.22-.73-.56-.28-.39-.9-1.85-1.4-3.3l-.78-2.41c-.28-.9-.56-1.68-.84-2.52,2.41-.22,3.14-.39,6.1-1.12l-.62-29.96c-.06-2.46-.17-3.75-.56-6.44,1.79.17,3.19.28,4.09.34,4.03.28,5.04.5,5.04,1.29,0,.56-.56.9-2.3,1.46l.56,31.58ZM487.69,303.9c9.52-4.54,15.79-10.25,19.6-17.81,2.3-4.65,3.7-10.75,4.42-18.98.28-2.91.45-6.66.45-8.74,0-1.01,0-1.46-.06-2.86,1.9.22,3.36.39,4.31.5,3.98.39,5.26.73,5.26,1.46,0,.56-.78,1.01-2.69,1.51-1.01,12.21-1.46,15.68-2.74,20.16-.95,3.36-1.96,5.77-3.58,8.57,2.41,1.12,5.38,2.86,7.73,4.54,3.02,2.13,4.03,3.53,4.03,5.49,0,2.69-2.07,5.66-4.03,5.66-.5,0-.9-.22-1.18-.84q-.22-.39-1.06-3.08c-1.12-3.64-3.64-8.23-6.05-10.81-2.58,4.14-5.54,7.17-9.63,9.86-4.31,2.8-8.46,4.54-14.56,6.05l-.22-.67ZM492,260.78c7.73,3.75,12.26,7.62,12.26,10.36s-2.07,5.71-4.03,5.71c-.9,0-1.34-.56-1.79-2.13-1.12-4.31-3.7-9.3-6.83-13.61l.39-.34Z"/>
      <path d="M559.75,265.15c-.22,3.08-.62,5.21-1.29,7.73,2.02.9,5.88,3.02,8.12,4.48,3.92,2.63,4.93,3.92,4.93,6.27s-1.62,4.82-3.36,4.82c-.73,0-1.12-.5-1.96-2.3-2.52-5.71-5.32-10.02-8.01-12.32-1.29,3.98-3.36,7.22-6.5,10.19-2.02,2.02-4.65,3.81-8.68,6.05l-.5-.62c7.06-6.1,10.25-13.1,11.14-24.3h-11.98l.06,25.82c0,5.82.06,6.89.17,11.54v.28c0,.9-.28,1.23-1.29,1.46-.56.17-2.02.28-3.08.28-1.79,0-2.24-.34-2.24-1.57v-.11q.11-4.2.22-8.74c.11-3.14.11-5.1.11-17.25,0-9.63,0-9.8-.39-16.58,3.14,1.46,4.09,1.96,7.22,3.7h11.31c.11-2.13.17-3.81.17-6.27,0-2.02-.06-2.69-.22-4.48,1.57.17,2.8.34,3.53.39,4.54.34,5.66.62,5.66,1.4,0,.67-.22.78-2.63,1.62-.17,4.03-.22,4.76-.39,7.34h12.82q1.9-2.13,3.25-3.7c2.13,1.51,2.8,1.96,4.87,3.47.62.45.84.73.84,1.12,0,.56-.56,1.06-2.18,1.96v19.66q.11,9.69.17,12.38c-.11,2.41-.9,3.58-2.97,4.54-1.57.67-3.75,1.18-5.38,1.18-.62,0-.73-.06-.78-1.06-.11-.95-.39-1.68-.84-2.3-1.23-1.57-2.3-2.02-7.73-3.36v-.67c5.26.34,5.94.39,10.02.56.9,0,1.12-.17,1.12-.84v-31.75h-13.33Z"/>
    </g>
    <g class="cl-svg-title-em-text">
      <path d="M366.97,273.78c5.17-4.99,9.76-6.97,16.1-6.97,12.18,0,19.77,7.4,19.77,19.35,0,12.81-8.76,20.98-22.61,20.98-10.93,0-19.44-5.42-19.44-12.47,0-3.27,2.08-4.99,5.92-4.99,1.92,0,3.42.52,4.17,1.46.58.69.75,1.38.83,3.87.08,3.18.83,5.42,2.34,7.05,1.58,1.81,4,2.84,6.51,2.84,3.42,0,6.26-1.55,8.17-4.39,2-3.18,3.17-7.91,3.17-13.24,0-10.84-4.34-17.11-11.85-17.11-5.51,0-10.68,3.53-14.01,9.37l-2.75-.69,2.75-36.12h34.12l-1.5,9.63h-30.03l-1.67,21.41Z"/>
    </g>
  </g>
</svg>